<svg width="24" height="24" viewBox="0 0 24 24" fill="none" xmlns="http://www.w3.org/2000/svg">
<path d="M16.8789 5.05369C18.345 3.94978 20.7197 3.0951 20.7197 5.81345C20.7197 6.3561 20.4097 10.3737 20.2275 11.0263C19.5952 13.2939 17.2905 13.8724 15.2402 13.5224C18.8239 14.1343 19.7352 16.1608 17.7666 18.1875C14.0274 22.0369 12.3923 17.222 11.9736 15.9883C11.8962 15.7608 11.8604 15.6551 11.8604 15.748C11.8603 15.6551 11.8235 15.7607 11.7461 15.9883C11.3275 17.222 9.69235 22.0369 5.95312 18.1875C3.98478 16.1609 4.8961 14.1344 8.47949 13.5224C6.42931 13.8723 4.12454 13.2938 3.49219 11.0263C3.31 10.3735 3 6.35608 3 5.81345C3.00001 3.09511 5.37503 3.94979 6.84082 5.05369C8.87217 6.58391 11.0581 9.68564 11.8604 11.3506C12.6626 9.68561 14.8477 6.58387 16.8789 5.05369Z" fill="#F3F6F7"/>
</svg>
