<svg width="22" height="23" viewBox="0 0 22 23" fill="none" xmlns="http://www.w3.org/2000/svg">
<path d="M0.333252 2.3615C0.333252 1.5175 1.03459 0.833496 1.89992 0.833496H20.0999C20.9653 0.833496 21.6666 1.5175 21.6666 2.3615V20.6388C21.6666 21.4828 20.9653 22.1668 20.0999 22.1668H1.89992C1.03459 22.1668 0.333252 21.4828 0.333252 20.6388V2.3615ZM6.92392 18.6922V9.05883H3.72259V18.6922H6.92392ZM5.32392 7.74283C6.43992 7.74283 7.13458 7.00416 7.13458 6.07883C7.11458 5.1335 6.44125 4.41483 5.34525 4.41483C4.24925 4.41483 3.53325 5.13483 3.53325 6.07883C3.53325 7.00416 4.22792 7.74283 5.30259 7.74283H5.32392ZM11.8679 18.6922V13.3122C11.8679 13.0242 11.8893 12.7362 11.9746 12.5308C12.2053 11.9562 12.7319 11.3602 13.6173 11.3602C14.7759 11.3602 15.2386 12.2428 15.2386 13.5388V18.6922H18.4399V13.1668C18.4399 10.2068 16.8613 8.83083 14.7546 8.83083C13.0559 8.83083 12.2946 9.76416 11.8679 10.4215V10.4548H11.8466L11.8679 10.4215V9.05883H8.66792C8.70792 9.96283 8.66792 18.6922 8.66792 18.6922H11.8679Z" fill="#242B2E"/>
</svg>
