<?xml version="1.0" encoding="utf-8"?>
<!-- Generator: Adobe Illustrator 26.3.1, SVG Export Plug-In . SVG Version: 6.00 Build 0)  -->
<svg version="1.1" id="Layer_1" xmlns="http://www.w3.org/2000/svg" xmlns:xlink="http://www.w3.org/1999/xlink" x="0px" y="0px"
	 viewBox="0 0 841.1 141.3" style="enable-background:new 0 0 841.1 141.3;" xml:space="preserve">
<style type="text/css">
	.st0{fill:#E85E26;}
</style>
<g>
	<path d="M144.5,40.1C144.5,17,126.5,0,95.2,0H31.3L0,141.3h35.6l10.8-48.6h20.9l20.6,48.6h35.5l-22.1-50.9
		C127.8,86.3,144.5,65.3,144.5,40.1z M87.4,63.2h-1.8l-32.7,0l7.5-33.7h32c10.5,0,16.7,5.7,16.7,13.9C109,54.2,101.1,63.2,87.4,63.2
		z"/>
	<path d="M223,0l-82.7,141.3h35.5l13.8-23.4l65.8,0l5.2,23.4h35.5L265.1,0L223,0z M207,88.4l30.5-52.1L249,88.4L207,88.4z"/>
	<path d="M404.5,0l-60.1,0l-31.3,141.3h35.5l10.9-48.6l39.7,0c33.9,0,54.5-25.4,54.5-52.2C453.6,16.7,434.9,0,404.5,0z M397.6,63.2
		H395h-29l7.4-33.7H401c10.8,0,17.5,5.1,17.5,13.9C418.4,54.2,410.2,63.2,397.6,63.2z"/>
	<polygon points="520.5,0 484.9,0 453.6,141.3 489.2,141.3 	"/>
	<path class="st0" d="M777.1,0c-8.3,0-92.5,0-112.2,0c1.7,1.7,3.4,3.5,4.9,5.4c12.6,15.1,19.2,34.1,19.2,55
		c0,32.2-13.7,61.3-35.7,80.9h68.7l32.6-80.5h-40.9l6.9-31.2h81.1l-42.6,111.8c0,0,5.6,0,16.7,0c39,0.2,65.3-31.8,65.3-70.8
		C841.1,31.6,816.1,0,777.1,0z"/>
	<path d="M650.2,23C637.9,8.3,617.8,0,594,0h-45.6l-31.3,141.3h57.4c22.3,0,39.5-4.9,52.5-12.8c26.6-16,36-44.2,36-68.2
		C663.1,45.4,658.4,32.8,650.2,23z M578.9,111.8h-19.6l18.2-82.2l18.5,0c20.4,0,31.8,15.2,31.8,34.1
		C627.8,89.1,609.5,111.8,578.9,111.8z"/>
</g>
</svg>
